<svg width="12" height="12" viewBox="0 0 12 12" fill="none" xmlns="http://www.w3.org/2000/svg">
<path d="M6.51265 1.11235C6.37669 0.976384 6.19228 0.9 6 0.9C5.80772 0.9 5.62331 0.976384 5.48735 1.11235C5.35138 1.24831 5.275 1.43272 5.275 1.625V5.275H1.625C1.43272 5.275 1.24831 5.35138 1.11235 5.48735C0.976384 5.62331 0.9 5.80772 0.9 6C0.9 6.19228 0.976384 6.37669 1.11235 6.51265C1.24831 6.64862 1.43272 6.725 1.625 6.725H5.275V10.375C5.275 10.5673 5.35138 10.7517 5.48735 10.8877C5.62331 11.0236 5.80772 11.1 6 11.1C6.19228 11.1 6.37669 11.0236 6.51265 10.8877C6.64862 10.7517 6.725 10.5673 6.725 10.375V6.725H10.375C10.5673 6.725 10.7517 6.64862 10.8877 6.51265C11.0236 6.37669 11.1 6.19228 11.1 6C11.1 5.80772 11.0236 5.62331 10.8877 5.48735C10.7517 5.35138 10.5673 5.275 10.375 5.275H6.725V1.625C6.725 1.43272 6.64862 1.24831 6.51265 1.11235Z" fill="#FFB800" stroke="#FFB800" stroke-width="0.2"/>
</svg>
